<?xml version="1.0" standalone="no"?>
<!DOCTYPE svg PUBLIC "-//W3C//DTD SVG 20010904//EN"
 "http://www.w3.org/TR/2001/REC-SVG-20010904/DTD/svg10.dtd">
<svg version="1.0" xmlns="http://www.w3.org/2000/svg"
 width="312.000000pt" height="300.000000pt" viewBox="0 0 312.000000 300.000000"
 preserveAspectRatio="xMidYMid meet">
<metadata>
Created by potrace 1.10, written by Peter Selinger 2001-2011
</metadata>
<g transform="translate(0.000000,300.000000) scale(0.050000,-0.050000)"
fill="#273a2d" stroke="none">
<path d="M2754 5248 c-2 -2 -35 -9 -74 -16 -64 -10 -95 -17 -195 -40 -19 -5
-60 -18 -90 -30 -30 -11 -55 -16 -55 -9 0 7 -13 1 -30 -13 -16 -14 -30 -19
-30 -12 0 7 -20 0 -45 -17 -25 -16 -52 -30 -60 -30 -33 -3 -287 -133 -324
-167 -22 -19 -61 -41 -86 -47 -25 -6 -45 -18 -45 -26 0 -8 -39 -42 -87 -76
-417 -300 -762 -881 -860 -1448 -31 -178 -38 -587 -11 -687 8 -33 20 -91 25
-130 6 -38 16 -92 23 -120 6 -27 17 -72 22 -99 6 -28 20 -61 32 -75 11 -14 14
-26 6 -26 -8 0 -4 -14 10 -30 14 -16 19 -30 12 -30 -7 0 2 -22 19 -49 18 -27
31 -52 28 -55 -6 -11 90 -205 116 -232 14 -15 25 -40 25 -55 0 -16 7 -29 17
-29 9 0 29 -25 45 -55 40 -77 48 -88 238 -289 405 -430 912 -680 1475 -729
l145 -12 0 312 0 312 -55 12 c-513 105 -885 346 -1161 751 -34 51 -57 99 -50
105 7 7 3 13 -9 13 -12 0 -48 65 -82 145 -270 651 -125 1388 373 1888 91 92
175 167 186 167 11 0 38 17 61 38 104 98 437 235 627 259 l100 13 6 316 5 315
-121 -5 c-67 -2 -124 -6 -126 -8z m6 -346 c0 -94 -2 -98 -65 -110 -423 -81
-971 -565 -1205 -1062 -478 -1020 82 -2288 1165 -2639 l105 -34 0 -99 c0 -116
7 -115 -233 -50 -994 267 -1544 966 -1563 1988 -19 1035 557 1806 1543 2064
236 62 253 58 253 -58z"/>
<path d="M3560 4953 l0 -312 55 -12 c513 -105 885 -346 1161 -751 34 -51 57
-99 50 -105 -7 -7 -3 -13 9 -13 12 0 49 -67 83 -148 214 -515 169 -1081 -126
-1580 -78 -131 -391 -472 -434 -472 -11 0 -38 -17 -61 -38 -104 -98 -437 -235
-627 -259 l-100 -13 -6 -317 -5 -317 135 12 c138 12 196 20 286 39 106 23 132
30 190 53 33 12 60 22 60 20 0 -2 27 8 60 21 33 12 69 25 80 27 40 9 300 142
307 157 3 8 19 15 35 15 15 0 28 8 28 19 0 10 19 24 42 32 23 7 58 28 77 46
19 18 59 51 89 72 44 31 229 214 363 358 343 371 603 1310 487 1763 -8 33 -20
92 -25 130 -6 39 -15 90 -22 115 -6 25 -15 62 -20 84 -4 21 -18 57 -30 80 -12
22 -16 41 -9 41 7 0 2 14 -12 30 -14 17 -18 30 -10 30 8 0 5 12 -7 27 -13 15
-17 33 -9 40 7 7 2 13 -11 13 -12 0 -21 7 -19 15 5 20 -88 208 -119 241 -14
15 -25 40 -25 55 0 16 -8 29 -17 29 -9 0 -27 23 -40 51 -12 28 -32 61 -43 75
-12 13 -39 47 -61 74 -407 503 -993 818 -1624 873 l-135 12 0 -312z m685 -54
c620 -226 1054 -673 1273 -1311 l62 -183 0 -448 c0 -522 -18 -615 -179 -947
-291 -598 -901 -1054 -1526 -1139 l-95 -13 0 101 c0 67 8 101 25 102 145 4
600 259 806 454 633 595 798 1563 397 2327 -217 412 -682 806 -1108 939 l-110
34 -6 100 -6 101 154 -29 c85 -16 226 -56 313 -88z"/>
<path d="M2790 4352 c-1370 -501 -1368 -2389 2 -2825 221 -70 208 -79 208 160
l0 207 -153 75 c-542 268 -756 911 -486 1460 113 230 372 468 562 516 l77 20
0 217 c0 253 5 249 -210 170z m10 -230 c0 -24 -34 -58 -95 -94 -800 -468 -804
-1705 -6 -2179 91 -54 137 -129 79 -129 -145 0 -561 338 -693 562 -206 349
-211 939 -11 1296 137 246 502 540 721 581 3 1 5 -16 5 -37z"/>
<path d="M3560 4191 l0 -208 155 -75 c667 -320 807 -1207 275 -1738 -134 -133
-319 -250 -395 -250 -31 0 -35 -25 -35 -222 l0 -223 65 13 c36 6 74 15 85 20
11 4 41 15 68 23 1354 429 1347 2390 -10 2822 -221 70 -208 79 -208 -162z
m394 -117 c436 -218 649 -572 662 -1100 14 -564 -198 -944 -655 -1174 -238
-119 -320 -90 -116 41 708 453 821 1414 235 1999 -82 83 -193 173 -245 200
-60 32 -95 63 -95 86 0 45 38 36 214 -52z"/>
<path d="M3115 3719 c-394 -98 -671 -515 -600 -900 145 -776 1163 -926 1510
-223 289 587 -275 1283 -910 1123z m405 -253 c515 -166 489 -926 -37 -1079
-410 -119 -763 137 -763 553 0 420 371 665 800 526z"/>
<path d="M5929 3501 c19 -21 30 -47 24 -57 -6 -10 13 -36 43 -58 l55 -41 65
45 c50 34 59 49 39 65 -104 83 -295 122 -226 46z"/>
<path d="M6100 3198 c-135 -105 -163 -154 -112 -197 26 -21 46 -12 120 49 50
40 100 68 111 61 14 -9 21 23 21 88 0 55 -2 100 -5 100 -3 -1 -63 -46 -135
-101z"/>
<path d="M6190 2787 c-22 -17 -78 -49 -124 -70 -55 -25 -81 -48 -74 -66 6 -15
1 -33 -11 -40 -48 -30 -19 -56 50 -45 132 22 209 86 209 176 0 43 -2 78 -5 77
-3 0 -23 -14 -45 -32z"/>
<path d="M3166 5 c52 -4 133 -4 180 0 46 5 3 8 -96 8 -99 0 -137 -4 -84 -8z"/>
</g>
</svg>
